<?xml version="1.0" encoding="UTF-8"?>
<!DOCTYPE svg PUBLIC "-//W3C//DTD SVG 1.1//EN" "http://www.w3.org/Graphics/SVG/1.1/DTD/svg11.dtd">
<!-- Creator: CorelDRAW X7 -->
<svg xmlns="http://www.w3.org/2000/svg" xml:space="preserve" width="20mm" height="20mm" version="1.1" style="shape-rendering:geometricPrecision; text-rendering:geometricPrecision; image-rendering:optimizeQuality; fill-rule:evenodd; clip-rule:evenodd"
viewBox="0 0 2000 2000"
 xmlns:xlink="http://www.w3.org/1999/xlink">
 <defs>
  <style type="text/css">
   <![CDATA[
    .fil0 {fill:black}
   ]]>
  </style>
 </defs>
 <g id="Слой_x0020_1">
  <metadata id="CorelCorpID_0Corel-Layer"/>
  <path class="fil0" d="M1499 319c40,16 77,37 110,63 64,49 114,111 147,180 33,69 49,146 47,226l0 0c-2,64 -16,125 -42,183 -25,58 -62,111 -109,158l0 0 -294 295 0 0c-17,16 -39,24 -60,24 -22,0 -44,-8 -60,-25l0 0c-17,-16 -25,-38 -25,-60 0,-21 8,-43 25,-60l0 0 294 -293c31,-32 56,-68 74,-107 17,-38 26,-78 27,-119 2,-53 -9,-103 -31,-149 -22,-45 -54,-86 -96,-118l0 0c-22,-17 -46,-31 -72,-41 -25,-11 -52,-18 -79,-22l0 0c-51,-6 -101,-1 -148,14 -46,16 -89,42 -125,78l0 0 -63 63 -19 19 -19 -19 -64 -64 0 0c-36,-36 -78,-62 -125,-78 -46,-15 -97,-20 -148,-14l0 0c-27,4 -54,11 -80,22 -25,10 -49,25 -71,42 -40,31 -72,70 -93,114 -22,43 -33,92 -33,142l-1 0c1,43 9,85 25,124 16,39 40,74 70,104l1 1 533 533 62 -62 0 0c16,-17 38,-25 60,-25 22,0 43,8 60,25l0 0c16,17 25,39 25,60 0,22 -9,43 -25,60l0 0 -87 87 0 0c-13,12 -28,22 -44,29 -16,7 -34,10 -51,10 -18,0 -36,-3 -52,-10 -16,-7 -31,-17 -44,-29l-558 -558c-46,-46 -82,-101 -107,-160 -24,-59 -37,-123 -37,-188l0 0c0,-77 17,-151 50,-217 33,-67 81,-126 142,-174l0 0c34,-26 71,-48 110,-64 39,-17 80,-28 123,-34 73,-9 145,-3 212,18 60,18 117,48 166,89 50,-40 106,-70 166,-89 67,-20 139,-26 211,-17l0 0c42,6 83,17 122,33z"/>
 </g>
</svg>
