<?xml version="1.0" encoding="UTF-8"?>
<!DOCTYPE svg PUBLIC "-//W3C//DTD SVG 1.1//EN" "http://www.w3.org/Graphics/SVG/1.1/DTD/svg11.dtd">
<!-- Creator: CorelDRAW X7 -->
<svg xmlns="http://www.w3.org/2000/svg" xml:space="preserve" width="20mm" height="20mm" version="1.1" style="shape-rendering:geometricPrecision; text-rendering:geometricPrecision; image-rendering:optimizeQuality; fill-rule:evenodd; clip-rule:evenodd"
viewBox="0 0 2000 2000"
 xmlns:xlink="http://www.w3.org/1999/xlink">
 <defs>
  <style type="text/css">
   <![CDATA[
    .fil0 {fill:black}
   ]]>
  </style>
 </defs>
 <g id="Слой_x0020_1">
  <metadata id="CorelCorpID_0Corel-Layer"/>
  <g id="_430560488">
   <path class="fil0" d="M816 1591c0,1 0,1 0,1 0,102 82,184 184,184 102,0 184,-82 184,-184 0,0 0,0 0,-1l-368 0z"/>
   <path class="fil0" d="M1588 1361l-166 -243 0 -304c0,-205 -146,-376 -339,-414l0 -94c0,-45 -37,-82 -83,-82 -46,0 -83,37 -83,82l0 94c-193,38 -339,209 -339,414l0 304 -166 243c-17,26 -19,59 -5,86 15,28 43,45 74,45l1038 0c31,0 59,-17 74,-45 14,-27 12,-60 -5,-86z"/>
  </g>
 </g>
</svg>
