<?xml version="1.0" encoding="UTF-8"?>
<!DOCTYPE svg PUBLIC "-//W3C//DTD SVG 1.1//EN" "http://www.w3.org/Graphics/SVG/1.1/DTD/svg11.dtd">
<!-- Creator: CorelDRAW X7 -->
<svg xmlns="http://www.w3.org/2000/svg" xml:space="preserve" width="20mm" height="20mm" version="1.1" style="shape-rendering:geometricPrecision; text-rendering:geometricPrecision; image-rendering:optimizeQuality; fill-rule:evenodd; clip-rule:evenodd"
viewBox="0 0 2000 2000"
 xmlns:xlink="http://www.w3.org/1999/xlink">
 <defs>
  <style type="text/css">
   <![CDATA[
    .fil0 {fill:black}
   ]]>
  </style>
 </defs>
 <g id="Слой_x0020_1">
  <metadata id="CorelCorpID_0Corel-Layer"/>
  <path class="fil0" d="M1582 610c-60,-85 -141,-152 -244,-202 -103,-49 -216,-74 -338,-74 -91,0 -178,15 -261,44 -83,29 -155,69 -215,118 -60,50 -108,109 -143,178 -36,68 -53,140 -53,215 0,87 22,168 67,243 46,76 108,140 186,191 -5,23 -12,45 -19,66 -8,21 -15,38 -21,51 -6,13 -14,28 -24,44 -10,16 -18,28 -23,35 -5,6 -14,17 -26,32 -12,16 -20,26 -23,30 -1,1 -3,3 -6,8 -4,5 -6,8 -6,8l-4 7c-3,5 -4,7 -4,9 1,1 0,4 -1,8 -1,5 -1,8 0,11l0 0c2,11 7,19 14,26 6,6 14,9 22,7 33,-4 61,-11 86,-19 131,-38 246,-108 345,-209 38,4 74,7 109,7 122,0 235,-25 338,-75 103,-49 184,-116 244,-201 60,-86 90,-179 90,-279 0,-101 -30,-193 -90,-279z"/>
 </g>
</svg>
