<?xml version="1.0" encoding="UTF-8"?>
<!DOCTYPE svg PUBLIC "-//W3C//DTD SVG 1.1//EN" "http://www.w3.org/Graphics/SVG/1.1/DTD/svg11.dtd">
<!-- Creator: CorelDRAW X7 -->
<svg xmlns="http://www.w3.org/2000/svg" xml:space="preserve" width="20mm" height="20mm" version="1.1" style="shape-rendering:geometricPrecision; text-rendering:geometricPrecision; image-rendering:optimizeQuality; fill-rule:evenodd; clip-rule:evenodd"
viewBox="0 0 2000 2000"
 xmlns:xlink="http://www.w3.org/1999/xlink">
 <defs>
  <style type="text/css">
   <![CDATA[
    .fil0 {fill:black}
   ]]>
  </style>
 </defs>
 <g id="Слой_x0020_1">
  <metadata id="CorelCorpID_0Corel-Layer"/>
  <path class="fil0" d="M1762 1557l-665 -1219c-10,-18 -23,-32 -41,-43 -17,-10 -36,-15 -56,-15 -20,0 -39,5 -56,15 -18,11 -31,25 -41,43l-665 1219c-20,36 -19,72 2,109 10,16 23,30 40,39 17,10 36,15 55,15l1330 0c19,0 38,-5 55,-15 17,-9 30,-23 40,-39 21,-37 22,-73 2,-109zm-651 -87c0,8 -3,15 -8,20 -6,6 -12,9 -20,9l-166 0c-8,0 -14,-3 -20,-9 -5,-5 -8,-12 -8,-20l0 -164c0,-9 3,-15 8,-21 6,-5 12,-8 20,-8l166 0c8,0 14,3 20,8 5,6 8,12 8,21l0 164zm-2 -324c0,6 -4,11 -9,15 -5,3 -12,5 -20,5l-160 0c-9,0 -15,-2 -21,-5 -6,-4 -9,-9 -9,-15l-15 -395c0,-8 3,-14 9,-18 8,-7 14,-10 21,-10l190 0c7,0 14,3 21,10 6,4 9,9 9,16l-16 397z"/>
 </g>
</svg>
