<?xml version="1.0" encoding="UTF-8"?>
<!DOCTYPE svg PUBLIC "-//W3C//DTD SVG 1.1//EN" "http://www.w3.org/Graphics/SVG/1.1/DTD/svg11.dtd">
<!-- Creator: CorelDRAW X7 -->
<svg xmlns="http://www.w3.org/2000/svg" xml:space="preserve" width="20mm" height="20mm" version="1.1" style="shape-rendering:geometricPrecision; text-rendering:geometricPrecision; image-rendering:optimizeQuality; fill-rule:evenodd; clip-rule:evenodd"
viewBox="0 0 2000 2000"
 xmlns:xlink="http://www.w3.org/1999/xlink">
 <defs>
  <style type="text/css">
   <![CDATA[
    .fil0 {fill:black}
   ]]>
  </style>
 </defs>
 <g id="Слой_x0020_1">
  <metadata id="CorelCorpID_0Corel-Layer"/>
  <path class="fil0" d="M1775 823c-3,-10 -12,-17 -22,-19l-503 -73 -225 -455c-5,-10 -14,-16 -25,-16 -11,0 -20,6 -25,16l-225 455 -503 73c-10,2 -19,9 -22,19 -3,10 -1,21 7,29l364 354 -86 501c-2,11 2,21 11,27 9,7 20,8 29,3l450 -237 450 237c4,2 8,3 13,3 5,0 11,-2 16,-6 9,-6 13,-16 11,-27l-86 -500 364 -355c8,-8 10,-19 7,-29z"/>
 </g>
</svg>
