<?xml version="1.0" encoding="UTF-8"?>
<!DOCTYPE svg PUBLIC "-//W3C//DTD SVG 1.1//EN" "http://www.w3.org/Graphics/SVG/1.1/DTD/svg11.dtd">
<!-- Creator: CorelDRAW X7 -->
<svg xmlns="http://www.w3.org/2000/svg" xml:space="preserve" width="20mm" height="20mm" version="1.1" style="shape-rendering:geometricPrecision; text-rendering:geometricPrecision; image-rendering:optimizeQuality; fill-rule:evenodd; clip-rule:evenodd"
viewBox="0 0 2000 2000"
 xmlns:xlink="http://www.w3.org/1999/xlink">
 <defs>
  <style type="text/css">
   <![CDATA[
    .fil0 {fill:black}
   ]]>
  </style>
 </defs>
 <g id="Слой_x0020_1">
  <metadata id="CorelCorpID_0Corel-Layer"/>
  <path class="fil0" d="M1788 1691l-401 -416c103,-123 160,-277 160,-437 0,-375 -305,-679 -680,-679 -375,0 -679,304 -679,679 0,375 304,680 679,680 141,0 275,-43 389,-124l404 420c17,18 39,27 64,27 23,0 45,-8 61,-24 36,-34 37,-90 3,-126zm-921 -1355c277,0 502,225 502,502 0,277 -225,502 -502,502 -277,0 -502,-225 -502,-502 0,-277 225,-502 502,-502z"/>
 </g>
</svg>
