<?xml version="1.0" encoding="UTF-8"?>
<!DOCTYPE svg PUBLIC "-//W3C//DTD SVG 1.1//EN" "http://www.w3.org/Graphics/SVG/1.1/DTD/svg11.dtd">
<!-- Creator: CorelDRAW X7 -->
<svg xmlns="http://www.w3.org/2000/svg" xml:space="preserve" width="20mm" height="20mm" version="1.1" style="shape-rendering:geometricPrecision; text-rendering:geometricPrecision; image-rendering:optimizeQuality; fill-rule:evenodd; clip-rule:evenodd"
viewBox="0 0 2000 2000"
 xmlns:xlink="http://www.w3.org/1999/xlink">
 <defs>
  <style type="text/css">
   <![CDATA[
    .fil0 {fill:#2B2A29}
   ]]>
  </style>
 </defs>
 <g id="Слой_x0020_1">
  <metadata id="CorelCorpID_0Corel-Layer"/>
  <path class="fil0" d="M1060 282l696 618c17,15 26,36 27,57 4,61 -56,105 -113,83 -9,-3 -18,-8 -26,-15l-54 -48 0 595c0,89 -59,172 -147,172l-220 0c-77,0 -140,-62 -140,-139l0 -339 -166 0 0 339c0,77 -63,139 -140,139l-220 0c-80,0 -147,-65 -147,-146l0 -625 -54 48c-8,7 -17,12 -26,15 -88,33 -153,-80 -85,-141l697 -618 0 0c16,-15 37,-22 57,-21 19,0 38,7 53,20 1,0 1,1 2,1l0 0c2,2 4,4 6,5zm361 1290l0 -745 -423 -376 -420 372 0 754 171 0 0 -339 0 0c0,-77 63,-139 140,-139l222 0c77,0 140,62 140,139l0 0 0 338 170 0c0,-1 0,-3 0,-4z"/>
 </g>
</svg>
