<?xml version="1.0" encoding="UTF-8"?>
<!DOCTYPE svg PUBLIC "-//W3C//DTD SVG 1.1//EN" "http://www.w3.org/Graphics/SVG/1.1/DTD/svg11.dtd">
<!-- Creator: CorelDRAW X7 -->
<svg xmlns="http://www.w3.org/2000/svg" xml:space="preserve" width="20mm" height="20mm" version="1.1" style="shape-rendering:geometricPrecision; text-rendering:geometricPrecision; image-rendering:optimizeQuality; fill-rule:evenodd; clip-rule:evenodd"
viewBox="0 0 2000 2000"
 xmlns:xlink="http://www.w3.org/1999/xlink">
 <defs>
  <style type="text/css">
   <![CDATA[
    .fil0 {fill:black}
   ]]>
  </style>
 </defs>
 <g id="Слой_x0020_1">
  <metadata id="CorelCorpID_0Corel-Layer"/>
  <path class="fil0" d="M1267 710l273 0 0 0c146,0 263,118 263,263l-1 16 0 0 -87 541 0 0c-10,81 -47,152 -113,196l0 0c-52,35 -118,50 -183,50l-645 0c-65,0 -125,-24 -170,-65 -46,-40 -77,-97 -85,-161l-2 -17 0 -549c0,-19 -16,-35 -35,-35l-81 0c-20,0 -35,16 -35,35l0 549c0,19 15,35 35,35 74,0 113,91 60,144 -16,15 -37,25 -60,25 -113,0 -204,-92 -204,-204l0 -549c0,-112 91,-204 204,-204l81 0c113,0 204,92 204,204l0 535c0,48 40,88 88,88l646 0c116,0 125,-74 128,-98l1 0 0 -3 0 0 86 -538c-2,-25 -12,-47 -29,-63 -17,-16 -40,-26 -65,-26l-442 0 0 -357c0,-42 -7,-92 -36,-114l0 0c-15,-11 -35,-15 -53,-16l0 190 0 0c0,61 -16,119 -47,172 -30,52 -75,99 -134,140l0 0c-19,14 -42,18 -63,14 -74,-13 -95,-109 -34,-152 63,-44 109,-100 109,-174l0 -325 58 -19 0 0c5,-1 70,-21 144,-12 89,11 162,61 199,149 17,42 25,91 25,147l0 188z"/>
 </g>
</svg>
