<?xml version="1.0" encoding="UTF-8"?>
<!DOCTYPE svg PUBLIC "-//W3C//DTD SVG 1.1//EN" "http://www.w3.org/Graphics/SVG/1.1/DTD/svg11.dtd">
<!-- Creator: CorelDRAW X7 -->
<svg xmlns="http://www.w3.org/2000/svg" xml:space="preserve" width="20mm" height="20mm" version="1.1" style="shape-rendering:geometricPrecision; text-rendering:geometricPrecision; image-rendering:optimizeQuality; fill-rule:evenodd; clip-rule:evenodd"
viewBox="0 0 2000 2000"
 xmlns:xlink="http://www.w3.org/1999/xlink">
 <defs>
  <style type="text/css">
   <![CDATA[
    .fil0 {fill:black}
   ]]>
  </style>
 </defs>
 <g id="Слой_x0020_1">
  <metadata id="CorelCorpID_0Corel-Layer"/>
  <path class="fil0" d="M1472 594c15,-16 36,-25 59,-25l0 0c47,0 84,38 84,84l0 910c0,132 -108,240 -240,240l-750 0c-132,0 -240,-108 -240,-240l0 -910c0,-46 38,-84 84,-84l191 0 0 -87c0,-158 128,-285 285,-285l109 0c157,0 285,127 285,285l1 0 0 298c63,13 88,93 41,141 -15,15 -36,24 -59,24l-132 0c-74,0 -113,-90 -60,-143 12,-11 26,-19 42,-22l0 -43 -158 0c-74,0 -112,-91 -59,-143 15,-16 36,-25 59,-25l158 0 0 -87c0,-65 -53,-118 -117,-118l-110 0c-64,0 -117,53 -117,118l0 298c64,13 89,93 41,141 -15,15 -36,24 -59,24l-132 0c-74,0 -112,-90 -59,-143 11,-11 26,-19 42,-22l0 -43 -108 0 0 826c0,40 32,73 72,73l750 0c40,0 72,-33 72,-73l0 -910c0,-23 10,-44 25,-59z"/>
 </g>
</svg>
