<?xml version="1.0" encoding="UTF-8"?>
<!DOCTYPE svg PUBLIC "-//W3C//DTD SVG 1.1//EN" "http://www.w3.org/Graphics/SVG/1.1/DTD/svg11.dtd">
<!-- Creator: CorelDRAW X7 -->
<svg xmlns="http://www.w3.org/2000/svg" xml:space="preserve" width="20mm" height="20mm" version="1.1" style="shape-rendering:geometricPrecision; text-rendering:geometricPrecision; image-rendering:optimizeQuality; fill-rule:evenodd; clip-rule:evenodd"
viewBox="0 0 2000 2000"
 xmlns:xlink="http://www.w3.org/1999/xlink">
 <defs>
  <style type="text/css">
   <![CDATA[
    .fil0 {fill:black}
   ]]>
  </style>
 </defs>
 <g id="Слой_x0020_1">
  <metadata id="CorelCorpID_0Corel-Layer"/>
  <path class="fil0" d="M1629 804l29 0c80,0 145,65 145,144l0 103c0,80 -65,145 -145,145l0 0 -29 0c-12,38 -27,75 -45,110l20 21c57,56 57,148 0,205l-72 72c-57,57 -149,57 -205,0l-21 -20c-35,18 -72,33 -109,45l0 29c0,80 -66,145 -146,145l-102 0c-81,0 -146,-65 -146,-145l0 -29c-37,-12 -74,-27 -109,-45 -23,22 -37,39 -68,52 -54,22 -116,10 -158,-32l0 0 -73 -73c-28,-28 -42,-65 -42,-102l0 0c0,-37 14,-74 43,-102l20 -21c-18,-35 -33,-71 -45,-109l-29 0c-80,0 -145,-65 -145,-145l0 -103c0,-80 65,-145 145,-145l29 0c12,-38 27,-75 45,-110l-20 -21c-29,-28 -43,-65 -43,-102 0,-65 43,-102 43,-103l72 -72c14,-14 30,-25 47,-32l0 0c54,-22 117,-10 158,32l21 20c35,-18 72,-33 109,-45l0 -29c0,-80 66,-145 146,-145l102 0c81,0 146,65 146,145l0 29c37,12 74,27 109,45 23,-22 37,-39 68,-52 54,-22 116,-10 158,32l72 72 0 0c57,57 57,149 0,205l-20 21c18,35 33,72 45,110zm-428 137c53,-53 143,-15 143,59 0,190 -154,344 -344,344 -190,0 -344,-154 -344,-344 0,-190 154,-344 344,-344 46,0 84,37 84,83 0,47 -38,84 -84,84 -97,0 -177,80 -177,177 0,97 80,177 177,177 97,0 177,-80 177,-177 0,-38 24,-59 24,-59zm316 88l118 0 0 -57 -140 0c-11,-57 -19,-105 -42,-160 -22,-55 -51,-93 -83,-142l99 -99 -40 -40 -99 99c-48,-32 -87,-61 -141,-83 -55,-23 -103,-31 -160,-42l0 -140 -57 0 0 140c-57,11 -105,19 -160,41 -55,23 -93,52 -142,84l-99 -99 -40 40 99 99 -12 18c-29,43 -51,73 -71,123 -23,55 -31,103 -42,160l-140 0 0 57 140 0c11,57 19,105 41,160 23,55 52,93 84,142l-99 99 40 40 99 -99 18 12c43,29 73,51 123,71 55,23 103,30 160,42l0 140 57 0 0 -140c57,-11 105,-19 160,-42 55,-22 93,-51 142,-83l99 99 40 -40 -99 -99c32,-48 61,-87 83,-141 23,-55 30,-103 42,-160l22 0z"/>
 </g>
</svg>
