<?xml version="1.0" encoding="UTF-8"?>
<!DOCTYPE svg PUBLIC "-//W3C//DTD SVG 1.1//EN" "http://www.w3.org/Graphics/SVG/1.1/DTD/svg11.dtd">
<!-- Creator: CorelDRAW X7 -->
<svg xmlns="http://www.w3.org/2000/svg" xml:space="preserve" width="20mm" height="20mm" version="1.1" style="shape-rendering:geometricPrecision; text-rendering:geometricPrecision; image-rendering:optimizeQuality; fill-rule:evenodd; clip-rule:evenodd"
viewBox="0 0 2000 2000"
 xmlns:xlink="http://www.w3.org/1999/xlink">
 <defs>
  <style type="text/css">
   <![CDATA[
    .fil0 {fill:black}
   ]]>
  </style>
 </defs>
 <g id="Слой_x0020_1">
  <metadata id="CorelCorpID_0Corel-Layer"/>
  <path class="fil0" d="M867 1000c0,91 -110,136 -174,72 -64,-64 -18,-174 72,-174 57,0 102,46 102,102zm438 -662c283,104 498,355 498,662 0,96 -21,190 -62,276 -85,181 -247,317 -436,386 -155,56 -327,68 -491,33 -22,-5 -41,-18 -53,-36 -12,-18 -16,-41 -12,-63l0 0c5,-23 18,-42 37,-54 18,-11 40,-16 63,-11 50,10 100,15 151,15l0 0c176,0 335,-61 450,-161 247,-213 247,-557 0,-770 -248,-215 -652,-215 -900,0 -114,99 -185,235 -185,385 0,62 12,123 35,180 23,57 58,111 103,159l0 0c10,12 17,26 20,41 3,15 2,31 -3,45l0 0c-9,23 -18,44 -30,64 26,-7 52,-17 76,-32l7 -4c19,-8 38,-10 57,-5 21,5 40,18 52,38l3 7c9,19 11,38 6,57 -5,21 -18,40 -38,52 -105,62 -228,75 -330,60 -43,-6 -77,-37 -87,-79l0 0c-10,-43 8,-86 45,-110l0 0c25,-17 45,-38 61,-64 -156,-197 -191,-457 -83,-685 84,-180 247,-317 436,-386 195,-70 415,-70 610,0zm-203 662c0,91 -110,136 -174,72 -65,-64 -19,-174 72,-174 56,0 102,46 102,102zm234 0c0,91 -110,136 -174,72 -19,-18 -30,-44 -30,-72l0 0c0,-91 110,-136 174,-72 18,18 30,44 30,72l0 0z"/>
 </g>
</svg>
